# xmcd
#
# Track frame offsets:
#	150
#	13512
#	26737
#	40400
#	48012
#	63687
#	75112
#	88687
#	100337
#	111562
#
# Disc length: 1660 seconds
#
# Revision: 1
# Processed by: cddbd v1.5.2PL0 Copyright (c) Steve Scherf et al.
# Submitted via: audiograbber 1.83.01
#
DISCID=78067a0a
DTITLE=The Oak Ridge Boys - Sailing Toward Home
DYEAR=1900
DGENRE=Gospel Country
TTITLE0=He
TTITLE1=He's Gonna Smile On Me
TTITLE2=Put Your Arms Around Me Blessed Jesus
TTITLE3=Jesus Knows Who I Am
TTITLE4=Freedom For The Stallion
TTITLE5=Family Reunion
TTITLE6=Sailing Toward Home
TTITLE7=We Gotta Love One Another
TTITLE8=Lord, I've Been Ready For Years
TTITLE9=When I Sing For Him
EXTD=
EXTT0=
EXTT1=
EXTT2=
EXTT3=
EXTT4=
EXTT5=
EXTT6=
EXTT7=
EXTT8=
EXTT9=
PLAYORDER=
